<?xml version="1.0" standalone="no"?>
<!DOCTYPE svg PUBLIC "-//W3C//DTD SVG 20010904//EN"
 "http://www.w3.org/TR/2001/REC-SVG-20010904/DTD/svg10.dtd">
<svg version="1.0" xmlns="http://www.w3.org/2000/svg"
 width="1024.000000pt" height="1024.000000pt" viewBox="0 0 1024.000000 1024.000000"
 preserveAspectRatio="xMidYMid meet">
<metadata>
Created by potrace 1.11, written by Peter Selinger 2001-2013
</metadata>
<g transform="translate(0.000000,1024.000000) scale(0.100000,-0.100000)"
fill="#000000" stroke="none">
<path d="M2129 10236 c-2 -2 -33 -7 -69 -10 -90 -7 -130 -14 -240 -37 -842
-181 -1511 -814 -1739 -1644 -16 -61 -32 -126 -35 -145 -3 -19 -10 -62 -16
-95 -6 -33 -14 -89 -18 -125 -9 -87 -9 -6048 1 -6125 4 -33 9 -71 11 -85 3
-14 7 -42 10 -62 30 -197 111 -440 218 -652 346 -685 1046 -1167 1805 -1243
105 -11 6049 -10 6138 0 267 32 532 111 770 230 374 188 671 452 901 802 65
99 164 283 195 360 23 61 71 191 74 205 2 8 13 51 25 95 12 44 24 89 26 100
13 60 25 125 30 165 3 25 9 72 14 105 10 70 8 6098 -2 6135 -4 14 -12 54 -17
90 -10 67 -13 81 -32 165 -69 312 -237 655 -450 920 -60 75 -219 239 -284 295
-160 135 -323 241 -507 330 -133 64 -335 139 -432 160 -135 30 -164 35 -226
45 -19 2 -53 8 -75 12 -41 7 -6068 16 -6076 9z"/>
</g>
</svg>
